<?xml version="1.0" encoding="UTF-8" standalone="no"?>
<svg
   xmlns:dc="http://purl.org/dc/elements/1.1/"
   xmlns:cc="http://creativecommons.org/ns#"
   xmlns:rdf="http://www.w3.org/1999/02/22-rdf-syntax-ns#"
   xmlns:svg="http://www.w3.org/2000/svg"
   xmlns="http://www.w3.org/2000/svg"
   xmlns:xlink="http://www.w3.org/1999/xlink"
   xmlns:sodipodi="http://sodipodi.sourceforge.net/DTD/sodipodi-0.dtd"
   xmlns:inkscape="http://www.inkscape.org/namespaces/inkscape"
   width="356"
   height="270"
   id="svg2"
   version="1.1"
   inkscape:version="0.91 r13725"
   sodipodi:docname="design2-logo.svg"
   inkscape:export-filename="/home/philip/Clients/Nimrod/Art/design-2.png"
   inkscape:export-xdpi="90"
   inkscape:export-ydpi="90">
  <defs
     id="defs4" />
  <sodipodi:namedview
     id="base"
     pagecolor="#ffffff"
     bordercolor="#666666"
     borderopacity="1.0"
     inkscape:pageopacity="0.0"
     inkscape:pageshadow="2"
     inkscape:zoom="0.62853935"
     inkscape:cx="467.29511"
     inkscape:cy="131.10897"
     inkscape:document-units="px"
     inkscape:current-layer="layer2"
     showgrid="false"
     inkscape:window-width="1918"
     inkscape:window-height="1059"
     inkscape:window-x="0"
     inkscape:window-y="0"
     inkscape:window-maximized="0"
     inkscape:snap-bbox="true"
     inkscape:bbox-nodes="true"
     inkscape:snap-page="true" />
  <metadata
     id="metadata7">
    <rdf:RDF>
      <cc:Work
         rdf:about="">
        <dc:format>image/svg+xml</dc:format>
        <dc:type
           rdf:resource="http://purl.org/dc/dcmitype/StillImage" />
        <dc:title></dc:title>
      </cc:Work>
    </rdf:RDF>
  </metadata>
  <g
     inkscape:groupmode="layer"
     id="layer2"
     inkscape:label="Layer"
     transform="translate(0,-450)">
    <path
       id="path3783"
       style="fill:none;stroke:#ff0404;stroke-width:5;stroke-linecap:butt;stroke-linejoin:miter;stroke-miterlimit:4;stroke-dasharray:none;stroke-opacity:1"
       d="m 1600.9581,-1.7007338 0,0 c 43.6386,0 111.0986,-22.4119402 133,-68.0000002 l 31,-86.999996 14,-59 -24,10 c -6.5627,-6.64067 -11.242,-11.8105 -28,-21 l -16,-33 -27,21 c -18.1706,-4.32547 -36.2371,-8.85903 -57,-8 l -26,-25 -26,25 c -20.7628,-0.85903 -38.8294,3.67453 -57,8 l -27,-21 -16,33 c -16.758,9.1895 -21.4373,14.35933 -28,21 l -24,-10 14,59 31,86.999996 c 21.9015,45.58806 89.3614,68.0000002 133,68.0000002 m 133,-132.9999962 c -10.7606,-35.73309 -78.4635,-65 -133,-65 -54.5365,0 -122.2393,29.26691 -133,65"
       inkscape:connector-curvature="0"
       sodipodi:nodetypes="ccccccccccccccccccccccc" />
    <path
       id="path3785"
       style="color:#000000;display:inline;overflow:visible;visibility:visible;fill:none;stroke:#04ff15;stroke-width:5;stroke-linecap:butt;stroke-linejoin:miter;stroke-miterlimit:4;stroke-dasharray:none;stroke-dashoffset:0;stroke-opacity:1;marker:none;enable-background:accumulate"
       d="m 1440.9581,-158.70073 12,29 15,-4 27,34.999996 37,11 69,-38.999996 69,38.999996 37,-11 27,-34.999996 15,4 12,-29"
       inkscape:connector-curvature="0"
       sodipodi:nodetypes="ccccccccccc" />
    <g
       id="g4218"
       transform="translate(-462,41)">
      <path
         sodipodi:nodetypes="csccccccccccccccccccc"
         inkscape:connector-curvature="0"
         d="m 773,548 c -10.76065,-35.73309 -66.4635,-67 -133,-67 -67.86983,0 -122.23935,31.26691 -133,67 L 494.16667,559 476,524 l -14,-59 24,10 c 6.56269,-6.64067 11.24201,-11.8105 28,-21 l 16,-33 27,21 c 18.1706,-4.32547 36.23715,-8.85903 57,-8 l 26,-25 26,25 c 20.76285,-0.85903 38.8294,3.67453 57,8 l 27,-21 16,33 c 16.75799,9.1895 21.43731,14.35933 28,21 l 24,-10 -14,59 -18.16667,35 z"
         style="fill:#efc743;fill-opacity:1;stroke:none"
         id="path3799" />
      <path
         sodipodi:nodetypes="cccccccccccsccc"
         inkscape:connector-curvature="0"
         d="m 788,551 -15,-4 -27,35 -37,11 -69,-39 -69,39 -37,-11 -27,-35 -15,4 -16,-28 31,88 c 21.90144,45.58806 89.3614,68 133,68 43.6386,0 111.09856,-22.41194 133,-68 l 31,-88 z"
         style="color:#000000;display:inline;overflow:visible;visibility:visible;fill:#000000;fill-opacity:1;stroke:none;stroke-width:5;marker:none;enable-background:accumulate"
         id="path3801" />
    </g>
    <g
       id="g5241">
      <g
         id="g4201"
         transform="translate(440,30)">
        <path
           sodipodi:nodetypes="cccccccccccccccccccccc"
           inkscape:connector-curvature="0"
           id="path4203"
           d="m 640,-331.40625 -29.0625,27.96875 -54.43445,5.59386 -30.2218,-20.75011 -18.0625,37.34375 -25.98045,17.45723 -30.9258,-13.80098 18.89956,77.70199 L 500.25,-115.75 550.125,-69.625 640,-43.5 m 0,-16 -82.04688,-22.734375 -44.04687,-39.734375 -31.56245,-89.78885 -10.62505,-42.64865 16.73083,7.60705 31.26917,-23.7633 13,-26.84375 22.45413,15.30877 L 616.875,-291.375 640,-313.59375"
           style="color:#000000;font-style:normal;font-variant:normal;font-weight:normal;font-stretch:normal;font-size:medium;line-height:normal;font-family:Sans;-inkscape-font-specification:Sans;text-indent:0;text-align:start;text-decoration:none;text-decoration-line:none;letter-spacing:normal;word-spacing:normal;text-transform:none;direction:ltr;block-progression:tb;writing-mode:lr-tb;baseline-shift:baseline;text-anchor:start;display:inline;overflow:visible;visibility:visible;fill:#efc743;fill-opacity:1;fill-rule:nonzero;stroke:none;stroke-width:15;marker:none;enable-background:accumulate" />
        <path
           sodipodi:nodetypes="ccccc"
           id="path4205"
           d="m 640,-256.5 -67.80984,15.31673 -59.80984,39.31673 63.80984,-29.81673 L 640,-241.5"
           style="color:#000000;font-style:normal;font-variant:normal;font-weight:normal;font-stretch:normal;font-size:medium;line-height:normal;font-family:Sans;-inkscape-font-specification:Sans;text-indent:0;text-align:start;text-decoration:none;text-decoration-line:none;letter-spacing:normal;word-spacing:normal;text-transform:none;direction:ltr;block-progression:tb;writing-mode:lr-tb;baseline-shift:baseline;text-anchor:start;display:inline;overflow:visible;visibility:visible;fill:#efc743;fill-opacity:1;fill-rule:nonzero;stroke:none;stroke-width:15;marker:none;enable-background:accumulate"
           inkscape:connector-curvature="0" />
        <path
           sodipodi:nodetypes="ccccccccccc"
           inkscape:connector-curvature="0"
           id="path4207"
           d="m 640,-199.23826 c 0,0 -42.50329,30.66502 -62.87261,46.27973 l -28.40224,-5.45606 -25.70529,-31.29046 -12.08008,3.23072 -23.76686,-27.02567 15.81648,43.09499 14.83322,-3.96114 22.86787,29.63834 38.0944,11.32156 L 640,-174.989"
           style="color:#000000;font-style:normal;font-variant:normal;font-weight:normal;font-stretch:normal;font-size:medium;line-height:normal;font-family:Sans;-inkscape-font-specification:Sans;text-indent:0;text-align:start;text-decoration:none;text-decoration-line:none;letter-spacing:normal;word-spacing:normal;text-transform:none;direction:ltr;block-progression:tb;writing-mode:lr-tb;baseline-shift:baseline;text-anchor:start;display:inline;overflow:visible;visibility:visible;fill:#000000;fill-opacity:1;fill-rule:nonzero;stroke:none;stroke-width:15;marker:none;enable-background:accumulate" />
      </g>
      <use
         height="720"
         width="1280"
         transform="matrix(-1,0,0,1,2160,0)"
         id="use4214"
         xlink:href="#g4201"
         y="0"
         x="0" />
    </g>
    <g
       id="g5248">
      <g
         transform="translate(0,30)"
         id="g4196">
        <path
           sodipodi:nodetypes="cccccccccccccccccccc"
           inkscape:connector-curvature="0"
           id="path4170"
           d="m 640,-331.40625 c -9.67956,9.33117 -19.37553,18.64528 -29.0625,27.96875 l -54.43445,5.59386 c -9.74043,-7.58358 -19.47604,-15.17337 -29.2218,-22.75011 -6.36022,13.11165 -19.0625,39.34375 -19.0625,39.34375 l -24.98045,18.45723 c 0,0 -23.28589,-11.19579 -31.9258,-14.80098 6.41263,25.86565 11.70188,52.06462 18.89956,77.70199 10.51727,28.77331 20.11931,57.9414 31.20142,86.47101 17.02296,43.218211 80.67953,66.580231 138.58652,66.580231 m 0,-14.77108 c -55.93839,0 -111.88237,-23.448477 -126.87478,-56.437001 -8.79595,-25.49734 -22.6515,-68.01475 -30.78142,-93.709 -3.20835,-13.54955 -7.4167,-29.0991 -10.62505,-42.64865 5.16257,1.46985 16.73083,7.60705 16.73083,7.60705 l 31.26917,-23.7633 c 0,0 7.67016,-19.89415 12,-28.84375 7.83702,4.54626 14.75731,13.49638 22.45413,17.30877 L 616.875,-291.375 c 7.71168,-7.40276 15.41618,-14.81301 23.125,-22.21875"
           style="color:#000000;font-style:normal;font-variant:normal;font-weight:normal;font-stretch:normal;font-size:medium;line-height:normal;font-family:Sans;-inkscape-font-specification:Sans;text-indent:0;text-align:start;text-decoration:none;text-decoration-line:none;letter-spacing:normal;word-spacing:normal;text-transform:none;direction:ltr;block-progression:tb;writing-mode:lr-tb;baseline-shift:baseline;text-anchor:start;display:inline;overflow:visible;visibility:visible;fill:#efc743;fill-opacity:1;fill-rule:nonzero;stroke:none;stroke-width:15;marker:none;enable-background:accumulate" />
        <path
           sodipodi:nodetypes="cscsc"
           inkscape:connector-curvature="0"
           style="color:#000000;font-style:normal;font-variant:normal;font-weight:normal;font-stretch:normal;font-size:medium;line-height:normal;font-family:Sans;-inkscape-font-specification:Sans;text-indent:0;text-align:start;text-decoration:none;text-decoration-line:none;letter-spacing:normal;word-spacing:normal;text-transform:none;direction:ltr;block-progression:tb;writing-mode:lr-tb;baseline-shift:baseline;text-anchor:start;display:inline;overflow:visible;visibility:visible;fill:#efc743;fill-opacity:1;fill-rule:nonzero;stroke:none;stroke-width:15;marker:none;enable-background:accumulate"
           d="m 640,-256.5 c -28.60987,0 -59.96593,7.54068 -86.09375,19.8125 -26.12782,12.27182 -41.52593,34.82096 -41.52593,34.82096 0,0 23.85303,-13.96355 47.90093,-25.25846 C 584.32915,-238.41991 614.07337,-241.5 640,-241.5"
           id="path4137" />
        <path
           sodipodi:nodetypes="ccccccccccc"
           inkscape:connector-curvature="0"
           id="path4139"
           d="m 640,-199.23826 c 0,0 -46.52915,33.75116 -62.87261,46.27973 -9.46741,-1.81869 -18.93483,-3.63737 -28.40224,-5.45606 -8.54394,-10.4498 -17.33222,-20.7036 -25.70529,-31.29046 -4.02883,1.0689 -8.05397,2.15164 -12.08008,3.23072 -7.92229,-9.00856 -15.84457,-18.01711 -23.76686,-27.02567 5.33219,14.34168 10.03561,28.92754 15.81648,43.09499 4.94665,-1.31198 9.88964,-2.63767 14.83322,-3.96114 7.62224,9.87974 15.24766,19.75703 22.86787,29.63834 12.70226,3.75985 25.39796,7.54203 38.0944,11.32156 20.6706,-13.43353 40.76669,-27.79166 61.21511,-41.58275"
           style="color:#000000;font-style:normal;font-variant:normal;font-weight:normal;font-stretch:normal;font-size:medium;line-height:normal;font-family:Sans;-inkscape-font-specification:Sans;text-indent:0;text-align:start;text-decoration:none;text-decoration-line:none;letter-spacing:normal;word-spacing:normal;text-transform:none;direction:ltr;block-progression:tb;writing-mode:lr-tb;baseline-shift:baseline;text-anchor:start;display:inline;overflow:visible;visibility:visible;fill:#000000;fill-opacity:1;fill-rule:nonzero;stroke:none;stroke-width:15;marker:none;enable-background:accumulate" />
      </g>
      <use
         height="720"
         width="1280"
         transform="matrix(-1,0,0,1,1280,0)"
         id="use4216"
         xlink:href="#g4196"
         y="0"
         x="0" />
    </g>
    <g
       id="g4222"
       transform="translate(980.93669,-340.47192)">
      <path
         id="path4224"
         style="fill:#efc743;fill-opacity:1;stroke:none"
         d="M 773,533 723.5,496.5 640,481 556.5,496.5 507,533 494.16667,559 476,524 l -14,-59 24,10 28,-21 16,-33 27,21 57,-8 26,-25 26,25 57,8 27,-21 16,33 28,21 24,-10 -14,59 -18.16667,35 z"
         inkscape:connector-curvature="0"
         sodipodi:nodetypes="ccccccccccccccccccccccc" />
      <path
         id="path4226"
         style="color:#000000;display:inline;overflow:visible;visibility:visible;fill:#000000;fill-opacity:1;stroke:none;stroke-width:5;marker:none;enable-background:accumulate"
         d="m 788,551 -15,-4 -27,35 -37,11 -69,-39 -69,39 -37,-11 -27,-35 -15,4 -16,-28 31,88 46.5,44 86.5,24 86.5,-24 46.5,-44 31,-88 z"
         inkscape:connector-curvature="0"
         sodipodi:nodetypes="ccccccccccccccccc" />
    </g>
    <g
       id="g4261"
       transform="translate(445.83337,0)">
      <path
         sodipodi:nodetypes="ccccccccccccccccccccccc"
         inkscape:connector-curvature="0"
         d="M 1733,533 1683.5,496.5 1600,481 1516.5,496.5 1467,533 1454.1667,559 1436,524 l -14,-59 24,10 28,-21 16,-33 27,21 57,-8 26,-25 26,25 57,8 27,-21 16,33 28,21 24,-10 -14,59 -18.1667,35 z"
         style="fill:#efc743;fill-opacity:1;stroke:none"
         id="path4233" />
      <path
         id="path4235"
         d="m 1436,523 31,88 46.5,44 68.125,18.90625 -25.0312,-99.0625 L 1531,593 l -37,-11 -27,-35 -15,4 -16,-28 z m 328,0 -16,28 -15,-4 -27,35 -37,11 -25.5938,-18.15625 -25.0312,99.0625 L 1686.5,655 l 46.5,-44 31,-88 z"
         style="color:#000000;display:inline;overflow:visible;visibility:visible;fill:#000000;fill-opacity:1;stroke:none;stroke-width:5;marker:none;enable-background:accumulate"
         inkscape:connector-curvature="0" />
      <path
         sodipodi:nodetypes="ccccccccc"
         style="color:#000000;display:inline;overflow:visible;visibility:visible;fill:#000000;fill-opacity:1;fill-rule:nonzero;stroke:none;stroke-width:15;marker:none;enable-background:accumulate"
         d="M 1560.3486,567.5 1572.1743,530.92562 1600,504.35124 1627.8257,530.92562 1639.6514,567.5 1619.8257,545.50698 1600,532.51396 1580.1743,545.50698 Z"
         id="path4237"
         inkscape:connector-curvature="0" />
    </g>
    <g
       transform="translate(10.625,0)"
       id="g4266">
      <path
         id="path4268"
         style="fill:#efc743;fill-opacity:1;stroke:none"
         d="M 1733,533 1683.5,496.5 1600,481 1516.5,496.5 1467,533 1454.1667,559 1436,524 l -14,-59 24,10 28,-21 16,-33 27,21 57,-8 26,-25 26,25 57,8 27,-21 16,33 28,21 24,-10 -14,59 -18.1667,35 z"
         inkscape:connector-curvature="0"
         sodipodi:nodetypes="ccccccccccccccccccccccc" />
      <path
         inkscape:connector-curvature="0"
         style="color:#000000;display:inline;overflow:visible;visibility:visible;fill:#000000;fill-opacity:1;stroke:none;stroke-width:5;marker:none;enable-background:accumulate"
         d="m 1436,523 31,88 46.5,44 68.125,18.90625 -25.0312,-99.0625 L 1531,593 l -37,-11 -27,-35 -15,4 -16,-28 z m 328,0 -16,28 -15,-4 -27,35 -37,11 -25.5938,-18.15625 -25.0312,99.0625 L 1686.5,655 l 46.5,-44 31,-88 z"
         id="path4270" />
    </g>
    <g
       transform="translate(1316.25,0)"
       id="g4282">
      <path
         id="path4284"
         style="fill:#efc743;fill-opacity:1;stroke:none"
         d="M 1733,533 1683.5,496.5 1600,481 1516.5,496.5 1467,533 1454.1667,559 1436,524 l -14,-59 24,10 28,-21 16,-33 27,21 57,-8 26,-25 26,25 57,8 27,-21 16,33 28,21 24,-10 -14,59 -18.1667,35 z"
         inkscape:connector-curvature="0"
         sodipodi:nodetypes="ccccccccccccccccccccccc" />
      <path
         inkscape:connector-curvature="0"
         style="color:#000000;display:inline;overflow:visible;visibility:visible;fill:#000000;fill-opacity:1;stroke:none;stroke-width:5;marker:none;enable-background:accumulate"
         d="m 1436,523 31,88 46.5,44 68.125,18.90625 -25.0312,-99.0625 L 1531,593 l -37,-11 -27,-35 -15,4 -16,-28 z m 328,0 -16,28 -15,-4 -27,35 -37,11 -25.5938,-18.15625 -25.0312,99.0625 L 1686.5,655 l 46.5,-44 31,-88 z"
         id="path4286" />
      <path
         inkscape:connector-curvature="0"
         id="path4288"
         d="m 1571.5986,582.05774 8.4705,-27.40787 19.9309,-23.3673 19.9309,23.3673 8.4705,27.40787 L 1600,684.33263 Z"
         style="color:#000000;display:inline;overflow:visible;visibility:visible;fill:#000000;fill-opacity:1;fill-rule:nonzero;stroke:none;stroke-width:15;marker:none;enable-background:accumulate"
         sodipodi:nodetypes="ccccccc" />
    </g>
    <g
       transform="translate(881.04175,0)"
       id="g4290">
      <path
         id="path4292"
         style="fill:#efc743;fill-opacity:1;stroke:none"
         d="M 1733,533 1683.5,496.5 1600,481 1516.5,496.5 1467,533 1454.1667,559 1436,524 l -14,-59 24,10 28,-21 16,-33 27,21 57,-8 26,-25 26,25 57,8 27,-21 16,33 28,21 24,-10 -14,59 -18.1667,35 z"
         inkscape:connector-curvature="0"
         sodipodi:nodetypes="ccccccccccccccccccccccc" />
      <path
         inkscape:connector-curvature="0"
         style="color:#000000;display:inline;overflow:visible;visibility:visible;fill:#000000;fill-opacity:1;stroke:none;stroke-width:5;marker:none;enable-background:accumulate"
         d="m 1436,523 31,88 46.5,44 68.125,18.90625 -25.0312,-99.0625 L 1531,593 l -37,-11 -27,-35 -15,4 -16,-28 z m 328,0 -16,28 -15,-4 -27,35 -37,11 -25.5938,-18.15625 -25.0312,99.0625 L 1686.5,655 l 46.5,-44 31,-88 z"
         id="path4294" />
      <path
         inkscape:connector-curvature="0"
         id="path4296"
         d="M 1560.3486,567.5 1572.1743,530.92562 1600,504.35124 1627.8257,530.92562 1639.6514,567.5 1619.8257,545.50698 1600,532.51396 1580.1743,545.50698 Z"
         style="color:#000000;display:inline;overflow:visible;visibility:visible;fill:#000000;fill-opacity:1;fill-rule:nonzero;stroke:none;stroke-width:15;marker:none;enable-background:accumulate"
         sodipodi:nodetypes="ccccccccc" />
      <path
         inkscape:connector-curvature="0"
         id="path4288-6"
         d="m 1573.8486,585.6771 7.7995,-19.51733 18.3519,-14.8772 18.3519,14.8772 7.7995,19.51733 L 1600,690.83263 Z"
         style="color:#000000;display:inline;overflow:visible;visibility:visible;fill:#000000;fill-opacity:1;fill-rule:nonzero;stroke:none;stroke-width:15;marker:none;enable-background:accumulate"
         sodipodi:nodetypes="ccccccc" />
    </g>
  </g>
</svg>
