<?xml version="1.0" encoding="UTF-8" standalone="no"?>
<!-- Created with Inkscape (http://www.inkscape.org/) -->

<svg
   xmlns:dc="http://purl.org/dc/elements/1.1/"
   xmlns:cc="http://creativecommons.org/ns#"
   xmlns:rdf="http://www.w3.org/1999/02/22-rdf-syntax-ns#"
   xmlns:svg="http://www.w3.org/2000/svg"
   xmlns="http://www.w3.org/2000/svg"
   xmlns:sodipodi="http://sodipodi.sourceforge.net/DTD/sodipodi-0.dtd"
   xmlns:inkscape="http://www.inkscape.org/namespaces/inkscape"
   width="259.97092"
   height="330.00046"
   id="svg14334"
   version="1.1"
   inkscape:version="0.47 r22583"
   sodipodi:docname="New document 36">
  <defs
     id="defs14336">
    <inkscape:perspective
       sodipodi:type="inkscape:persp3d"
       inkscape:vp_x="0 : 526.18109 : 1"
       inkscape:vp_y="0 : 1000 : 0"
       inkscape:vp_z="744.09448 : 526.18109 : 1"
       inkscape:persp3d-origin="372.04724 : 350.78739 : 1"
       id="perspective14342" />
    <inkscape:perspective
       id="perspective14320"
       inkscape:persp3d-origin="0.5 : 0.33333333 : 1"
       inkscape:vp_z="1 : 0.5 : 1"
       inkscape:vp_y="0 : 1000 : 0"
       inkscape:vp_x="0 : 0.5 : 1"
       sodipodi:type="inkscape:persp3d" />
  </defs>
  <sodipodi:namedview
     id="base"
     pagecolor="#ffffff"
     bordercolor="#666666"
     borderopacity="1.0"
     inkscape:pageopacity="0.0"
     inkscape:pageshadow="2"
     inkscape:zoom="0.35"
     inkscape:cx="230.02908"
     inkscape:cy="57.389111"
     inkscape:document-units="px"
     inkscape:current-layer="layer1"
     showgrid="false"
     inkscape:window-width="551"
     inkscape:window-height="483"
     inkscape:window-x="0"
     inkscape:window-y="230"
     inkscape:window-maximized="0" />
  <metadata
     id="metadata14339">
    <rdf:RDF>
      <cc:Work
         rdf:about="">
        <dc:format>image/svg+xml</dc:format>
        <dc:type
           rdf:resource="http://purl.org/dc/dcmitype/StillImage" />
        <dc:title></dc:title>
      </cc:Work>
    </rdf:RDF>
  </metadata>
  <g
     inkscape:label="Layer 1"
     inkscape:groupmode="layer"
     id="layer1"
     transform="translate(-190.01453,-455.93337)">
    <g
       id="g14301"
       transform="translate(1028.1808,-661.3712)">
      <g
         transform="translate(-376.18081,-135.05739)"
         id="g14292">
        <path
           style="fill:#000000;fill-opacity:1;stroke:none"
           d="m -430.14062,1252.3622 c -15.52546,-0.07 -31.99906,15.2798 -31.84375,31.4375 l 0,117.2812 0,32.5313 0,148.75 228.125,0 c 15.52547,0.069 31.99906,-15.3111 31.84375,-31.4687 l 0,-117.2813 0,-32.5313 0,-148.7187 -228.125,0 z m 6.46875,5.9062 214.96875,0 0,141.9688 0,31.0625 0,111.9375 c 0.14636,15.4234 -15.4015,30.0963 -30.03125,30.0313 l -214.96875,0 0,-141.9688 0,-31.0625 0,-111.9375 c -0.14632,-15.4232 15.40147,-30.0978 30.03125,-30.0313 z"
           id="rect13917-4-2" />
        <path
           style="fill:#8b1e25;fill-opacity:1;stroke:none"
           d="m -423.70312,1258.1122 c -14.62978,-0.067 -30.20882,14.608 -30.0625,30.0312 l 0,111.9375 0,31.0625 0,14.9688 26.71875,-45.1563 -25,-62 52.60938,-80.6875 -24.26563,-0.1562 z m -30.0625,196.875 0.0469,118.2969 53.50782,0 -53.55469,-118.3008 0,5e-4 -3e-5,-5e-4 0,0 z m 245.05858,1.3438 -47.96484,116.9374 17.92835,0 c 14.62975,0.065 30.17761,-14.6079 30.03125,-30.0313 l 0.005,-86.9046 2.4e-4,0 0,0 0,0 0,0 z m -122.40613,46.647 -62.65244,70.2905 136.23436,0.015 -73.58192,-70.3061 0,5e-4 z"
           id="path14091-9"
           sodipodi:nodetypes="cccccccccccccccccccccccccccccc" />
        <path
           style="fill:#a42f38;fill-opacity:1;stroke:none"
           d="m -399.41759,1258.2383 0.71875,73.0156 -53.37879,7.6799 24.69129,61.2889 29.28125,-69.3125 73,-28 -74.3125,-44.6719 z m -28.46876,144.1406 -25.90624,43.7813 0.15625,5.5625 57.53125,17.0991 -0.85937,104.4321 3.21875,0 62.64062,-70.25 73.5625,70.2969 0.875,-0.031 47.96094,-116.9297 -1e-5,-3.5626 -122.39844,49.1329 -64.99458,-33.1051 -31.78667,-66.4262 0,-2e-4 z"
           id="path14232"
           sodipodi:nodetypes="cccccccccccccccccccccc" />
        <path
           style="fill:#932630;fill-opacity:1;stroke:none"
           d="m -399.41139,1258.224 -52.68214,80.7279 53.42299,-7.702 -0.74085,-73.0259 z m -54.3125,193.375 0,3.4062 -0.0312,0 53.5,118.25 3.32433,0.013 0.83187,-104.4502 -57.625,-17.2187 0,-3e-4 z"
           id="path14234-3"
           sodipodi:nodetypes="cccccccccccc" />
        <path
           style="fill:#c68a66;fill-opacity:1;stroke:none"
           d="m -230,1402.1122 -29.00823,-71.989 -71.49177,-27.511 72.4375,-44.3125 -0.95678,71.8207 50.32171,15.5759 -0.0136,4.4076 -20.78873,52.0083 20.79688,50.668 -50.80132,20.3916 L -230,1402.1122 z"
           id="path14278"
           sodipodi:nodetypes="ccccccccccc" />
        <path
           style="fill:#be785f;fill-opacity:1;stroke:none"
           d="m -330.40625,1302.5312 72.34375,-44.2187 -141.125,-0.031 68.78125,44.2497 z m 71.375,27.5623 50.33437,15.6079 -49.36562,-87.4204 -0.96875,71.8125 z m 50.3125,20 -21,52.0937 21,50.5937 0,-102.6874 z"
           id="path14280"
           sodipodi:nodetypes="cccccccccccc" />
        <path
           style="fill:#aa4042;fill-opacity:1;stroke:none"
           d="m -208.5625,1257.7813 -49.5,0.5 49.35757,87.4209 0.14243,-87.9209 z m -122.9375,43.8437 -66.5,28.5 -31.5,71.5 33.38866,67.2019 64.99544,33.1213 71.61981,-28.7763 29.62109,-71.0781 -29.125,-71.9688 -72.5,-28.5 z"
           id="path14282"
           sodipodi:nodetypes="ccccccccccccc" />
      </g>
      <path
         sodipodi:nodetypes="csssssssccssssccssccsssccccssssssssssssccsssssccsssccssssssccssssccssssccsssssssccssssccscccsccsssssccssssscccccccsssssccccccccccsccccccccccscccsssccccccccccccsccccccccccccccccccccccsssssccsssssscc"
         id="rect14031"
         d="m -674.85112,1133.3113 c -1.1656,0.021 -1.98229,0.16 -2.1875,0.375 -0.41043,0.4301 -0.0489,2.4588 0.78125,4.5 1.35174,3.3237 1.92706,3.7534 5.6875,4.0938 2.30943,0.209 4.74576,0.4347 5.40625,0.5312 0.66049,0.096 1.49431,-0.2808 1.84375,-0.8437 0.34945,-0.563 0.11254,-2.5271 -0.5,-4.375 -1.04477,-3.1521 -1.44839,-3.4072 -6.78125,-4.0313 -1.56328,-0.1829 -3.0844,-0.2711 -4.25,-0.25 z m -41.1875,7.6875 c -2.21566,0 -9.36105,3.9857 -9.96875,5.5625 -0.68508,1.7776 6.21737,10.5 8.3125,10.5 0.80663,0 3.26233,-1.2024 5.46875,-2.6562 2.20642,-1.4539 4.03125,-3.158 4.03125,-3.8125 0,-1.8419 -6.34162,-9.5938 -7.84375,-9.5938 z m 94.40625,7.0313 c -2.42464,0 -0.29559,3.8416 3.4375,6.1875 4.50773,2.8326 6.78125,3.4507 6.78125,1.875 0,-1.0692 -8.8649,-8.0625 -10.21875,-8.0625 z m -45.34375,0.3437 c -3.42101,0.084 -6.76508,0.5937 -12.375,1.5938 -11.76815,2.0978 -26.14485,6.6503 -31.03125,9.8437 -18.51855,12.1024 -34.55251,29.9888 -49.125,54.8125 -20.7786,35.3955 -32.21195,76.7419 -35.96875,129.9063 l -0.65625,9.1562 c 0.10932,0.054 0.24715,0.1073 0.40625,0.1563 l 51.9375,0 c 28.80447,0 52.58487,-0.211 52.84375,-0.4688 0.25888,-0.2578 -1.44766,-6.2539 -3.8125,-13.3125 -7.66482,-22.8781 -12.57574,-49.5907 -12.625,-68.5625 -0.0647,-24.9245 7.65851,-52.5629 19.75,-70.6562 6.49705,-9.722 16.56943,-19.6925 19.9375,-19.7188 1.28897,-0.01 4.34658,-1.3677 6.8125,-3.0312 2.46591,-1.6636 7.6525,-3.9927 11.5,-5.1563 11.91671,-3.6039 27.98589,-1.5521 42.84375,5.4375 5.24998,2.4698 6.59758,2.7801 7.3125,1.6563 1.82097,-2.8625 0.74822,-4.987 -5,-9.75 -15.18652,-12.5837 -31.61395,-19.2118 -52.71875,-21.3125 -3.57123,-0.3555 -6.16666,-0.5718 -8.5625,-0.5938 -0.49913,-0.01 -0.98003,-0.012 -1.46875,0 z m -94.6875,28.4375 c -2.25016,0.415 -9.75308,10.1211 -8.46875,11.2813 2.75367,2.4873 11.98292,7.9648 12.6875,7.5312 0.45362,-0.2791 2.17285,-2.4882 3.84375,-4.9062 1.67091,-2.4181 3.03125,-4.8154 3.03125,-5.3125 0,-0.7721 -6.66596,-6.0735 -10.71875,-8.5313 -0.0992,-0.06 -0.22499,-0.09 -0.375,-0.062 z m 139.71875,1.6875 c -0.80072,6e-4 -1.49005,0.1478 -1.84375,0.5 -0.55271,0.5503 -0.72147,1.7573 -0.375,2.6563 0.82333,2.1362 8.21875,1.742 8.21875,-0.4375 0,-1.355 -3.59785,-2.7206 -6,-2.7188 z m -29.96875,1 c -0.4167,0.01 -0.93443,0.1004 -1.5625,0.25 -3.65478,0.8705 -6.34375,2.2592 -6.34375,3.2813 0,0.4471 0.9221,1.6255 2.03125,2.625 1.10915,0.9994 2,2.4448 2,3.1875 0,1.6376 0.7899,1.6787 4.90625,0.25 3.61899,-1.2562 3.71159,-1.6767 1.6875,-6.5 -0.98705,-2.3522 -1.46866,-3.114 -2.71875,-3.0938 z m -25.75,19.7188 c -1.24184,0 -4.34375,3.3385 -4.34375,4.6875 0,1.7328 5.04704,9.375 6.1875,9.375 0.4681,0 1.56616,-1.1285 2.46875,-2.5 1.55799,-2.3676 1.50232,-2.7268 -1.03125,-7.0313 -1.46774,-2.4937 -2.93237,-4.5312 -3.28125,-4.5312 z m -118.625,33.125 c -1.35603,0 -5.6875,10.4083 -5.6875,13.6562 0,1.2104 11.08812,6.1624 14.21875,6.3438 1.13748,0.066 2.29691,-1.9022 3.84375,-6.5938 1.79765,-5.4523 1.94102,-6.9137 0.875,-7.875 -1.67276,-1.5084 -11.29751,-5.5312 -13.25,-5.5312 z m 101.90625,0.4062 c -0.29265,0.058 -0.52916,0.2772 -0.75,0.625 -0.52341,0.8243 -0.96026,2.0112 -0.96875,2.6563 -0.008,0.645 -0.26635,1.8692 -0.59375,2.7187 -0.38536,0.9999 0.94802,2.9739 3.78125,5.5938 4.90318,4.5338 5.41291,4.7218 6.28125,2.4687 1.53219,-3.9755 0.54185,-7.1007 -3.46875,-11 -2.10123,-2.0429 -3.22405,-2.951 -3.96875,-3.0625 -0.11171,-0.017 -0.21495,-0.019 -0.3125,0 z m -5.3125,38.9375 c -1.1383,-0.045 -1.44627,0.8356 -1.4375,2.5938 0.028,5.6202 1.033,7.0326 6.875,9.625 7.67085,3.4039 8.31127,3.361 7.625,-0.5938 -0.92777,-5.3464 -1.09753,-5.576 -6.65625,-8.75 -3.30686,-1.8882 -5.26795,-2.8301 -6.40625,-2.875 z m -116.65625,28.9375 c -1.69425,0 -6.37947,15.1496 -5.4375,17.5938 0.5082,1.3186 4.26627,1.9492 13.84375,2.3125 l 4.625,0.1562 1.84375,-8.0625 c 1.11075,-4.8422 1.49492,-8.3559 0.9375,-8.8437 -0.90396,-0.7912 -12.73901,-3.1563 -15.8125,-3.1563 z m 124.0625,20.375 c -0.30094,0.011 -0.49529,0.058 -0.5625,0.125 -0.33246,0.331 0.17672,3.0672 1.125,6.0625 1.45841,4.6066 2.14977,5.4925 4.46875,5.8438 3.85576,0.5839 14.34375,0.8165 14.34375,0.3125 0,-2.0927 -4.28137,-9.5592 -5.71875,-9.9688 -4.27648,-1.2186 -11.54966,-2.4492 -13.65625,-2.375 z m 73.46875,49.125 c -2.396,0 -4.87641,0.084 -6.84375,0.2813 -5.7879,0.5787 -7.73412,1.2617 -10.25,3.5 -2.75064,2.447 -3.14759,3.4888 -3.46875,9.1562 -0.29186,5.1504 0.0221,7.0445 1.6875,9.6875 2.57758,4.0905 5.54671,5.2616 13.5,5.2813 7.55154,0.018 9.02977,0.7906 8.59375,4.5937 l -0.34375,2.9063 -11.34375,0.2812 -11.34375,0.2812 0,5 0,4.9688 12.65625,0 c 9.33871,0 13.41088,-0.3761 15.59375,-1.5 4.15932,-2.1416 6.03125,-6.343 6.03125,-13.5938 0,-5.6828 -0.28195,-6.4518 -3.4375,-9.5937 -3.4733,-3.4583 -3.91593,-3.5734 -14.71875,-3.8437 -4.38093,-0.1097 -6.03125,-1.1095 -6.03125,-3.6563 0,-2.8312 3.80706,-3.9375 13.65625,-3.9375 l 8.5,0 0,-4.4062 0,-4.4375 -6.0625,-0.6875 c -1.66797,-0.1928 -3.979,-0.2839 -6.375,-0.2813 z m -76.28125,0.6563 -5.28125,0.3125 -5.3125,0.3125 -0.28125,21.0624 c -0.15027,11.5816 -0.0215,21.6079 0.25,22.3126 0.30976,0.8035 2.37926,1.2812 5.5625,1.2812 l 5.0625,0 0,-22.625 0,-22.6562 z m -112.9375,0.125 0,22.5937 0,22.5625 5.5,0 5.5,0 0.3125,-5.75 c 0.17892,-3.4156 0.73745,-5.7814 1.40625,-5.7812 0.6217,0 3.2774,2.6062 5.875,5.7812 l 4.71875,5.75 6,0 c 3.29699,0 6,-0.2445 6,-0.5625 0,-0.318 -2.0669,-3.2083 -4.5625,-6.4375 -2.4956,-3.2292 -4.53125,-6.2042 -4.53125,-6.5938 0,-0.3894 2.03565,-2.5922 4.53125,-4.9062 l 4.5,-4.1875 c 0.0161,-0.054 0.0468,-0.1013 0.0625,-0.1563 l 0,-7.6874 c 0,-7.5446 -0.12619,-7.9218 -3.4375,-11.2188 l -3.4375,-3.4062 -14.21875,0 -14.21875,0 z m 68.6875,0 c -16.78084,0.035 -17.25,0.782 -17.25,26.5312 l 0,18.625 5.03125,0 c 5.01259,0 5.04715,-0.01 5.0625,-3.25 0.0247,-5.2128 0.97529,-5.9039 7.625,-5.5625 l 5.96875,0.2813 0.3125,4.3437 0.3125,4.3125 5.21875,-0.3125 5.25,-0.3125 0.3125,-16.5625 c 0.48453,-26.2322 -0.72516,-28.1295 -17.84375,-28.0937 z m 60.375,0 0,22.5937 0,22.625 14.875,-0.2813 14.875,-0.2812 0,-5 0,-5.0312 -9.0625,-0.5 -9.09375,-0.5 -0.28125,-16.8126 -0.25,-16.8124 -5.53125,0 -5.53125,0 z m -110.5625,10.0312 c 1.57498,0.021 3.10723,0.2361 4.125,0.625 2.25361,0.8611 2.25361,9.9515 0,10.8125 -2.71404,1.037 -9.03964,0.6736 -10.3125,-0.5937 -0.66549,-0.6627 -1.21875,-2.8246 -1.21875,-4.8126 0,-1.9877 0.55326,-4.1498 1.21875,-4.8124 0.79554,-0.7921 3.56253,-1.2536 6.1875,-1.2188 z m 50.15625,0.031 c 2.4737,0 4.98482,0.4256 5.75,1.1875 0.66549,0.6626 1.21875,3.4963 1.21875,6.3124 0,2.8162 -0.55326,5.6499 -1.21875,6.3126 -1.82958,1.8215 -9.41447,1.5144 -11.40625,-0.4688 -2.04902,-2.0402 -1.57461,-11.0621 0.65625,-12.4687 0.77267,-0.4873 2.2759,-0.7618 3.9375,-0.8438 0.34617,-0.017 0.70911,-0.031 1.0625,-0.031 l 0,-2e-4 z"
         style="fill:#f2f2f2;fill-opacity:1;stroke:none" />
    </g>
  </g>
</svg>
