<?xml version="1.0" encoding="UTF-8" standalone="no"?>
<svg id="animatedSparkLogo" version="1.1" xmlns="http://www.w3.org/2000/svg" xmlns:xlink="http://www.w3.org/1999/xlink" x="0px" y="0px" width="661.2px" height="666.5px" viewBox="0 0 661.2 666.5" enable-background="new 0 0 661.2 666.5" xml:space="preserve"><path class="flicker" stroke="#FFA64D" stroke-width="1" opacity="0.5" fill-rule="evenodd" clip-rule="evenodd" fill="#FFA64D" d="M32.6,472.8C76.4,428.6,632.6,10.1,642,19.6
	c7.3,7.4-406.3,570.1-450.1,614.2c-43.8,44-114.8,43.6-158.7-0.8C-10.7,588.6-11,516.9,32.6,472.8z"></path><path class="flicker" stroke="#FFA64D" stroke-width="1" opacity="0.3" fill-rule="evenodd" clip-rule="evenodd" fill="#FFA64D" d="M57.2,453.2c53.6-31.4,597.3-247,604-235.3
	c5.1,9.1-438.3,401.1-492,432.3c-53.6,31.2-122,12.3-152.8-42C-14.6,553.9,3.7,484.5,57.2,453.2z"></path><path class="flicker" stroke="#FFA64D" stroke-width="1" opacity="0.3" fill-rule="evenodd" clip-rule="evenodd" fill="#FFA64D" d="M211.4,608.4C242.5,554.4,456.3,6.7,444.8,0
	c-9-5.2-398.1,441.6-429.1,495.7c-30.9,54-12.2,122.9,41.8,153.9C111.4,680.7,180.3,662.3,211.4,608.4z"></path><path class="flicker" stroke="#FFA64D" stroke-width="1" opacity="0.2" fill-rule="evenodd" clip-rule="evenodd" fill="#FFA64D" d="M83.4,441.6c59.9-16.3,562.2-78.5,565.7-65.6
	c2.7,10-448.4,268.5-508.4,284.8C80.8,677,19.4,641,3.7,580.5C-12,520.1,23.7,457.9,83.4,441.6z"></path><path class="flicker" stroke="#FFA64D" stroke-width="1" opacity="9.999999e-002" fill-rule="evenodd" clip-rule="evenodd" fill="#FFA64D" d="M83.4,441.6
	c59.9-16.3,465.8,75.4,469.2,88.2c2.7,10-352,114.7-412,130.9C80.8,677,19.4,641,3.7,580.5C-12,520.1,23.7,457.9,83.4,441.6z"></path><path class="flicker" stroke="#FFA64D" stroke-width="1" opacity="9.999999e-002" fill-rule="evenodd" clip-rule="evenodd" fill="#FFA64D" d="M222.9,582c16.2-60.3-75-469-87.8-472.5
	C125.1,106.7,21.3,464,5.2,524.4C-10.9,584.8,24.9,646.5,85,662.3C145,678.1,206.7,642.2,222.9,582z"></path><path class="flicker" stroke="#FFA64D" stroke-width="1" opacity="0.2" fill-rule="evenodd" clip-rule="evenodd" fill="#FFA64D" d="M222.9,582c16.2-60.3,77.6-566.2,64.9-569.7
	C277.9,9.6,21.4,464,5.3,524.5C-10.8,584.8,25,646.6,85,662.4C145.1,678.2,206.8,642.2,222.9,582z"></path></svg>
