<?xml version="1.0" encoding="utf-8"?>
<!-- Generator: Adobe Illustrator 15.0.2, SVG Export Plug-In . SVG Version: 6.00 Build 0)  -->
<!DOCTYPE svg PUBLIC "-//W3C//DTD SVG 1.1//EN" "http://www.w3.org/Graphics/SVG/1.1/DTD/svg11.dtd">
<svg version="1.1" xmlns="http://www.w3.org/2000/svg" xmlns:xlink="http://www.w3.org/1999/xlink" x="0px" y="0px"
	 width="122.833px" height="122.833px" viewBox="0 0 122.833 122.833" enable-background="new 0 0 122.833 122.833"
	 xml:space="preserve">
<g id="fond">
</g>
<g id="compacte">
</g>
<g id="rectangle">
</g>
<g id="carré">
	<rect y="0" fill="#FFFFFF" width="122.833" height="122.833"/>
	<g>
		<g>
			<circle cx="58.657" cy="58.07" r="28.072"/>
			<path fill="#FFFFFF" d="M70.93,40.385c-2.851,0.1-5.342,1.672-7.193,3.846c-2.053,2.384-3.417,5.213-4.401,8.099
				c-1.759-1.442-3.116-3.308-5.938-4.122c-2.183-0.627-4.473-0.369-6.58,1.201c-0.999,0.746-1.686,1.873-2.013,2.932
				c-0.848,2.754,0.889,5.205,1.679,6.086l1.725,1.846c0.356,0.363,1.211,1.309,0.794,2.664c-0.453,1.475-2.229,2.428-4.052,1.867
				c-0.814-0.252-1.984-0.857-1.721-1.709c0.108-0.35,0.358-0.613,0.493-0.912c0.123-0.26,0.181-0.454,0.218-0.568
				c0.333-1.088-0.122-2.502-1.286-2.861c-1.087-0.332-2.197-0.068-2.628,1.329c-0.49,1.591,0.271,4.472,4.344,5.729
				c4.772,1.467,8.809-1.133,9.381-4.521c0.361-2.122-0.599-3.7-2.354-5.729l-1.43-1.581c-0.867-0.867-1.164-2.342-0.268-3.475
				c0.757-0.957,1.834-1.365,3.601-0.886c2.577,0.698,3.726,2.487,5.642,3.93c-0.791,2.595-1.309,5.2-1.776,7.538l-0.287,1.74
				c-1.371,7.186-2.416,11.131-5.134,13.396c-0.547,0.391-1.331,0.973-2.51,1.014c-0.619,0.02-0.818-0.406-0.828-0.592
				c-0.014-0.434,0.353-0.633,0.596-0.828c0.363-0.199,0.912-0.527,0.875-1.578c-0.041-1.246-1.071-2.324-2.559-2.273
				c-1.117,0.037-2.816,1.086-2.752,3.01c0.066,1.984,1.916,3.473,4.706,3.377c1.492-0.049,4.822-0.656,8.103-4.557
				c3.819-4.473,4.888-9.6,5.692-13.352l0.896-4.953c0.499,0.059,1.031,0.1,1.611,0.113c4.757,0.102,7.136-2.363,7.173-4.155
				c0.023-1.085-0.712-2.152-1.742-2.128c-0.736,0.021-1.662,0.511-1.884,1.529c-0.217,1,1.514,1.902,0.161,2.779
				c-0.961,0.623-2.684,1.061-5.11,0.705l0.442-2.439c0.899-4.624,2.011-10.312,6.224-10.449c0.307-0.016,1.431,0.014,1.457,0.756
				c0.007,0.248-0.054,0.312-0.344,0.88c-0.297,0.442-0.408,0.819-0.395,1.253c0.042,1.18,0.939,1.956,2.238,1.91
				c1.737-0.057,2.237-1.748,2.209-2.618C75.933,41.583,73.779,40.293,70.93,40.385z"/>
		</g>
	</g>
</g>
</svg>
